<?xml version="1.0" encoding="UTF-8" standalone="no"?>
<!-- Created with Inkscape (http://www.inkscape.org/) -->

<svg
   version="1.1"
   id="svg1"
   width="1920"
   height="1080"
   viewBox="0 0 1920 1080"
   sodipodi:docname="lw.svg"
   inkscape:version="1.4 (e7c3feb100, 2024-10-09)"
   xmlns:inkscape="http://www.inkscape.org/namespaces/inkscape"
   xmlns:sodipodi="http://sodipodi.sourceforge.net/DTD/sodipodi-0.dtd"
   xmlns="http://www.w3.org/2000/svg"
   xmlns:svg="http://www.w3.org/2000/svg">
  <defs
     id="defs1" />
  <sodipodi:namedview
     id="namedview1"
     pagecolor="#ffffff"
     bordercolor="#666666"
     borderopacity="1.0"
     inkscape:showpageshadow="2"
     inkscape:pageopacity="0.0"
     inkscape:pagecheckerboard="0"
     inkscape:deskcolor="#d1d1d1"
     inkscape:zoom="0.315"
     inkscape:cx="769.84127"
     inkscape:cy="315.87302"
     inkscape:window-width="1867"
     inkscape:window-height="1016"
     inkscape:window-x="43"
     inkscape:window-y="33"
     inkscape:window-maximized="1"
     inkscape:current-layer="g1" />
  <g
     inkscape:groupmode="layer"
     inkscape:label="Image"
     id="g1">
    <g
       id="g2"
       transform="translate(-111.11111,15.873016)">
      <path
         style="fill:#ed1c24;fill-opacity:0.878431"
         d="m 1575.8694,282.36273 -2,-0.4416 0.1324,-1.32581 c 0.073,-0.72919 1.0835,-5.51807 2.246,-10.64196 1.1626,-5.12389 2.345,-10.36617 2.6277,-11.6495 0.2826,-1.28333 1.5969,-7.1878 2.9206,-13.12104 3.7744,-16.91839 3.1148,-15.59067 -4.3657,8.78771 -1.4627,4.76666 -2.9831,9.51464 -3.3789,10.55107 l -0.7195,1.8844 -1.3979,-0.3753 c -0.7689,-0.20642 -1.6432,-0.3794 -1.9429,-0.3844 l -0.5449,-0.009 0.4652,-1.5 c 0.2559,-0.825 1.0121,-2.7 1.6804,-4.16666 0.6684,-1.46667 1.8449,-4.2925 2.6145,-6.27963 0.7696,-1.98712 1.9538,-4.83712 2.6315,-6.33333 0.6778,-1.49621 2.0209,-4.67038 2.9847,-7.05371 3.4771,-8.59799 3.3602,-8.41644 4.821,-7.48704 l 0.7741,0.49255 -0.5665,4.66391 c -0.3116,2.56515 -0.8844,7.06391 -1.2729,9.99725 -0.3885,2.93333 -1.0251,7.88333 -1.4148,11 -0.3897,3.11666 -1.2152,9.69303 -1.8346,14.61415 l -1.1261,8.9475 -0.6667,0.13608 c -0.3667,0.0748 -1.5667,-0.0626 -2.6667,-0.30553 z m 28.1295,-2.55887 c -0.1554,-0.275 -1.0976,-3.2 -2.0938,-6.5 -0.9962,-3.3 -2.3604,-7.65 -3.0317,-9.66667 -0.6713,-2.01666 -2.3248,-7.26666 -3.6746,-11.66666 -1.3498,-4.4 -2.987,-9.65532 -3.6381,-11.67848 -0.6512,-2.02316 -1.3764,-4.72316 -1.6115,-6 l -0.4276,-2.32152 1.5959,3.33333 c 0.8778,1.83333 3.6085,8.13333 6.0682,14 2.4598,5.86667 5.6785,13.51667 7.1527,17 1.4741,3.48333 3.2221,7.70697 3.8843,9.38586 l 1.204,3.05253 -2.1593,0.7808 c -2.5356,0.91688 -2.8918,0.94748 -3.2685,0.28081 z m -55.3617,-10.35681 c -2.146,-1.84395 -2.1572,-2.01024 -0.2678,-3.97868 0.825,-0.85951 3.15,-3.35538 5.1667,-5.54637 2.0167,-2.19098 5.7667,-6.23891 8.3333,-8.99539 2.5667,-2.75649 7.7841,-8.38188 11.5942,-12.50087 8.3456,-9.02208 9.4063,-9.14077 2.6351,-0.29486 -5.6302,7.35536 -13.6686,17.88081 -19.827,25.96142 -2.2866,3.00031 -4.5421,5.7743 -5.0121,6.16442 l -0.8547,0.7093 z m 43.2951,-3.97652 c -0.182,-1.19167 -0.658,-4.71667 -1.0579,-7.83334 -0.3998,-3.11666 -1.0348,-8.06666 -1.411,-11 -0.3762,-2.93333 -0.9637,-6.95837 -1.3056,-8.94452 -1.2401,-7.20335 0.091,-6.58675 1.6797,0.77786 0.6524,3.025 1.417,6.4 1.6991,7.5 0.2822,1.1 0.8899,3.8 1.3505,6 0.4607,2.2 1.3951,6.16948 2.0766,8.82107 0.6815,2.6516 1.2391,5.2766 1.2391,5.83334 v 1.01225 h -1.9698 -1.9698 z m 14.7118,-2.35848 c -2.9484,-5.12932 -15.7269,-30.80588 -15.3283,-30.79994 0.6148,0.009 0.7163,0.1592 11.3487,16.7654 4.1461,6.47551 7.5383,12.05236 7.5383,12.39299 0,0.79543 -3.1973,2.27028 -3.5587,1.64155 z m 24.5587,-10.21089 c -2.2,-1.44781 -5.5,-3.57523 -7.3334,-4.72759 -26.0956,-16.40279 -34.9789,-22.91904 -22.1666,-16.26015 16.4343,8.5414 29.7827,15.42943 33.3333,17.20069 4.329,2.15955 4.1801,1.91872 2.8162,4.55619 -1.2884,2.49156 -1.7814,2.43453 -6.6495,-0.76914 z m -15.3483,-1.69923 c -1.8251,-1.66871 -6.1609,-5.62843 -9.635,-8.79938 -11.9335,-10.89199 -12.6834,-11.61611 -12.6834,-12.2467 0,-0.5162 6.1587,3.51674 7.3333,4.80211 0.1834,0.20062 2.7324,2.16052 5.6644,4.35533 2.9321,2.19481 5.6575,4.29057 6.0565,4.65724 0.3989,0.36666 2.575,2.0094 4.8356,3.65053 4.4063,3.19885 4.767,3.88177 2.9286,5.54552 l -1.1817,1.06936 z m -84.65,-6.66333 c -0.5509,-1.31866 -1.0017,-2.50129 -1.0017,-2.62806 0,-0.12677 2.625,-1.02309 5.8333,-1.99182 3.2083,-0.96873 9.4333,-2.90829 13.8333,-4.31014 7.218,-2.29964 22.9951,-7.14616 24.6667,-7.57723 1.4972,-0.38613 -134.1171,-1.05909 -210.6667,-1.0454 -45.1,0.008 -182.95,-0.29894 -306.3333,-0.68224 -123.3834,-0.3833 -291.8334,-0.89547 -374.3334,-1.13815 l -150,-0.44123 3.66667,-0.47727 3.66666,-0.47728 347,-0.80484 c 190.85007,-0.44266 425.05097,-0.99749 520.44637,-1.23296 l 173.4464,-0.42812 1.5966,-1.5 1.5966,-1.5 h 1.5009 c 3.5292,0 6.0275,2.51837 6.0587,6.1074 l 0.021,2.44074 -2.0512,1.72593 c -2.4633,2.07272 -3.5934,2.14091 -6.4649,0.3901 l -2.1828,-1.33084 h -2.6506 -2.6505 v 0.66667 c 0,0.36667 -0.2911,0.66667 -0.6469,0.66667 -0.3558,0 -2.2308,0.72004 -4.1667,1.60009 -1.9359,0.88005 -8.0198,3.46247 -13.5198,5.73873 -5.5,2.27625 -12.85,5.32946 -16.3333,6.78491 -3.4833,1.45545 -7.0075,2.91529 -7.8316,3.24409 l -1.4982,0.59783 z m 93.6649,-11.63583 c -1.2833,-0.32887 -3.8333,-0.92777 -5.6666,-1.3309 -1.8334,-0.40312 -4.5334,-0.99937 -6,-1.32499 -1.4667,-0.32563 -5.9066,-1.31094 -9.8665,-2.18958 -3.9599,-0.87865 -7.4099,-1.8245 -7.6667,-2.10188 l -0.4668,-0.50434 4.3333,0.42667 c 2.3833,0.23467 6.5833,0.73865 9.3333,1.11995 5.7505,0.79734 13.4155,1.7931 18.552,2.4101 l 3.552,0.42666 -0.3762,1.40136 c -0.2069,0.77076 -0.3803,1.62637 -0.3853,1.90137 -0.012,0.63633 -2.3439,0.53399 -5.3425,-0.23442 z m 9.9445,-6.20862 c -0.1528,-0.15201 -8.9778,-0.62764 -19.6111,-1.05696 -10.6334,-0.42932 -19.4584,-0.90495 -19.6111,-1.05695 -0.9298,-0.92508 -1.2962,-0.90017 39.7777,-2.70369 l 10.1667,-0.44641 v 2.77019 2.7702 h -5.2222 c -2.8722,0 -5.3472,-0.12437 -5.5,-0.27638 z m -39.4787,-5.74781 c 0.7442,-0.78287 7.8015,-3.91981 17.2009,-7.64565 2.2,-0.87206 6.4842,-2.64697 9.5205,-3.94425 l 5.5205,-2.35868 0.7614,1.67113 0.7614,1.67114 -0.6152,0.54018 c -0.3384,0.2971 -4.5153,1.76646 -9.2819,3.26525 -9.366,2.94495 -21.1868,6.61744 -23.3334,7.24918 l -1.3333,0.39241 z m -23.7991,-4.36478 c -3.85,-2.02715 -10.825,-5.65639 -15.5,-8.06496 -8.7346,-4.50012 -8.9868,-4.72409 -7.8053,-6.93171 l 0.6946,-1.29798 1.472,0.77553 c 0.8096,0.42655 3.872,2.32618 6.8054,4.22142 2.9333,1.89523 9.0083,5.77949 13.5,8.63168 4.4916,2.8522 8.1666,5.45637 8.1666,5.78706 0,0.79787 0.5714,1.04104 -7.3333,-3.12104 z m 23.3333,2.5327 c 0,-0.28761 0.975,-1.08443 2.1667,-1.7707 1.1917,-0.68628 4.1167,-2.50743 6.5,-4.04701 16.8281,-10.87049 32.6566,-20.99269 32.8273,-20.99269 0.3849,0 2.7196,4.67518 2.4465,4.8991 -0.8103,0.66433 -43.0684,22.43423 -43.5476,22.43423 -0.2161,0 -0.3929,-0.23532 -0.3929,-0.52293 z m -24.3333,-7.01443 c -4.4,-3.39308 -12.3458,-9.46024 -17.6574,-13.4826 -14.4379,-10.93358 -13.8816,-10.28161 -11.0459,-12.94565 l 1.6301,-1.53137 5.8699,5.54103 c 7.4869,7.06737 25.8195,23.93402 30.5033,28.06415 l 0.6333,0.55847 -0.9666,-0.0174 c -0.5317,-0.01 -4.5667,-2.79355 -8.9667,-6.18662 z m 27.3966,1.68571 c 11.2641,-10.67277 20.9824,-19.48168 21.4931,-19.48168 0.6246,0 2.485,3.21305 2.0558,3.5504 -0.1534,0.12049 -5.3788,4.06944 -11.6122,8.77545 -6.2333,4.70601 -12.1813,9.25788 -13.2178,10.11527 -4.0952,3.38761 -3.1756,1.26333 1.2811,-2.95944 z m -5.7299,3.41551 c 0,-0.23989 1.8623,-2.86489 4.1385,-5.83334 2.2761,-2.96845 6.3969,-8.39718 9.1572,-12.06385 2.7602,-3.66667 5.1729,-6.81667 5.3615,-7 0.1885,-0.18333 2.1427,-2.73333 4.3427,-5.66667 2.2,-2.93333 4.525,-5.9149 5.1667,-6.62571 0.6417,-0.7108 1.1667,-1.5358 1.1667,-1.83333 0,-0.93156 1.6034,-0.54942 3.1667,0.75475 2.2829,1.90452 2.5784,1.4449 -8.8104,13.70429 -25.4264,27.37015 -23.6896,25.5693 -23.6896,24.56386 z m -17.8768,-11.98544 c -4.0015,-6.1848 -8.2162,-12.66686 -9.366,-14.40458 -2.5249,-3.81592 -2.5649,-4.31961 -0.4211,-5.29642 2.047,-0.93269 0.7498,-2.88741 9.9581,15.00456 9.4752,18.41058 9.434,19.54208 -0.171,4.69644 z m 8.5434,10.44134 c 0,-0.3558 -0.7192,-2.2308 -1.5982,-4.16667 -0.879,-1.93586 -3.0124,-6.96975 -4.7409,-11.18642 -4.02,-9.80691 -8.0643,-19.38159 -10.0596,-23.81558 -0.8618,-1.91524 -1.751,-4.21559 -1.976,-5.11189 l -0.409,-1.62964 1.3481,-0.72145 c 0.7414,-0.39679 1.9135,-0.72144 2.6046,-0.72144 h 1.2566 l 1.8672,6.16667 c 1.027,3.39166 2.5498,8.26666 3.384,10.83333 0.8342,2.56667 2.6167,8.26667 3.961,12.66667 3.4518,11.29702 4.8726,15.82277 5.3895,17.16666 l 0.4487,1.16667 h -0.738 c -0.4059,0 -0.738,-0.29111 -0.738,-0.64691 z m 6.7138,-0.0972 c -0.026,-0.59258 0.9819,-4.34258 2.2397,-8.33334 1.2577,-3.99075 3.5394,-11.23091 5.0704,-16.08925 l 2.7837,-8.83333 1.0962,0.0102 c 0.6029,0.006 1.5197,0.27829 2.0373,0.60594 l 0.9411,0.59574 -2.8904,6.89405 c -5.8461,13.94368 -8.547,20.2979 -9.873,23.22739 l -1.3579,3 z m -4.9201,-0.38373 c -0.1869,-0.30242 -0.8183,-2.79738 -1.4032,-5.54435 -0.5849,-2.74698 -1.6652,-7.54451 -2.4008,-10.66117 -1.424,-6.03408 -2.4544,-10.67364 -3.3307,-14.99744 l -0.5399,-2.6641 0.7738,-0.49236 c 0.4256,-0.27079 1.2663,-0.49695 1.8682,-0.50256 l 1.0944,-0.0102 0.382,1.52198 c 0.2101,0.83708 0.6805,4.06208 1.0454,7.16666 0.3649,3.10458 0.9881,8.04469 1.3849,10.97803 1.8083,13.36703 2.0558,16.71011 1.1259,15.20552 z m 3.177,-1.99263 c 0.2467,-0.98291 0.7292,-4.13291 1.0723,-7 0.343,-2.86709 0.9429,-7.68789 1.3331,-10.71289 0.3901,-3.025 0.961,-7.45 1.2685,-9.83334 0.3076,-2.38333 0.8977,-7.18333 1.3114,-10.66666 0.4136,-3.48334 0.9062,-7.0392 1.0946,-7.90192 l 0.3426,-1.56858 2.4701,0.46137 c 3.2544,0.60788 3.1521,0.28766 1.8622,5.82559 -2.1755,9.34004 -3.4095,14.69581 -5.7255,24.8502 -0.3345,1.46667 -1.0449,4.61667 -1.5787,7 -0.5338,2.38334 -1.3269,5.90834 -1.7624,7.83334 l -0.7918,3.5 h -0.6725 -0.6724 z"
         id="path2"
         sodipodi:nodetypes="cccssssscsscsssssscsssscsscsssssscsssscsssssssssscsssssssssscccssssssscsssssssssssscssssssssscccsscccsscsscccsssssscsssssscssscscssscscccssssscccssscsssscssssssssssssssscssccsssssssssssssssssssssssssssscsscsssscsssssccscsscssssscsscssssssssssscssssscccs" />
      <path
         style="fill:#000000"
         d="m 300.62006,296.40957 c 0.17208,-0.45834 5.67917,-15.6083 12.23799,-33.6666 l 11.92513,-32.83325 18.83333,-8e-5 c 10.35834,-4e-5 18.83334,0.10217 18.83334,0.22713 0,0.12496 -3.27504,9.19996 -7.27786,20.16667 l -7.27786,19.93946 30.94453,0.17326 30.94452,0.17326 v 0.52729 c 0,0.90938 -12.25126,15.55201 -17.53651,20.95952 l -5.04985,5.16667 H 343.75201 300.3072 Z m 105.16312,-0.35555 v -1.18888 l 16.44957,-20.97779 c 9.04727,-11.53778 20.52227,-26.17437 25.5,-32.52576 l 9.05043,-11.54798 19.63002,0.0669 c 10.7965,0.0368 19.6778,0.13338 19.73621,0.21465 0.0584,0.0813 -6.4273,8.84776 -14.41269,19.48109 -7.98539,10.63334 -14.54169,19.70834 -14.56955,20.16667 l -0.0507,0.83333 h 20 c 11,0 20,-0.10363 20,-0.23029 0,-0.12667 -0.76114,-5.30167 -1.69143,-11.5 -3.39463,-22.61768 -4.23766,-28.56283 -4.07356,-28.72694 0.0921,-0.0921 7.95191,-0.19753 17.46623,-0.23427 l 17.29876,-0.0668 1.45272,9.21249 c 0.79899,5.06687 1.77336,11.31249 2.16525,13.87916 0.3919,2.56666 0.99159,6.46666 1.33266,8.66666 3.28814,21.20976 5.38271,34.93237 5.38271,35.2649 v 0.40177 h -17.29399 -17.29399 l -0.33665,-0.54472 c -0.18516,-0.29959 -1.1325,-4.87459 -2.10519,-10.16667 -0.97269,-5.29207 -1.90961,-9.85181 -2.08205,-10.13276 l -0.31352,-0.51081 -3.05479,4.17748 c -3.89132,5.32145 -6.02877,7.84362 -11.02619,13.01081 l -4.02978,4.16667 H 447.3484 405.78314 Z m 148.66667,0.82834 c 0,-1.13917 12.12061,-17.43031 16.96775,-22.80613 l 3.15581,-3.5 h 34.56708 34.56709 l 1.0378,-1.48167 1.0378,-1.48167 v -3.15363 -3.15362 l -0.75616,-1.65959 -0.75615,-1.65958 -23.41051,-0.20512 -23.41051,-0.20512 -3.49913,-1.93881 -3.49913,-1.93881 -3.59008,-3.76382 -3.59007,-3.76382 -1.74889,-3.45126 c -1.4352,-2.83224 -3.68936,-10.27262 -3.72951,-12.31014 l -0.01,-0.5 h 19.86667 19.86666 l 0.8318,0.83333 0.83179,0.83333 22.13487,0.33501 22.13488,0.33501 3.11711,1.43892 3.11711,1.43892 3.04882,2.8103 3.04882,2.8103 1.95315,3.41577 1.95315,3.41577 1.38092,4.9866 1.38092,4.9866 v 5.53443 5.53443 l -1.34277,3.98596 c -0.73853,2.19227 -2.61353,6.11584 -4.16667,8.71905 l -2.8239,4.73309 -3.89048,3.61099 -3.89048,3.61098 -3.44285,1.8156 -3.44285,1.81561 -52.5,0.18601 -52.5,0.18602 z m 128,-0.30256 c 0,-0.91635 23.40744,-65.54791 23.96853,-66.18082 l 0.45265,-0.5106 18.73989,0.17726 18.73989,0.17726 -2.32038,6.33333 c -1.27622,3.48334 -2.88731,7.75834 -3.58021,9.5 -1.72045,4.32453 -1.68833,4.30319 8.29219,-5.50888 l 8.82448,-8.67554 22.75674,0.17554 22.75675,0.17555 -13.98764,13.16667 -13.98764,13.16666 h -19.60582 -19.60582 l -1.16318,3.16667 c -0.63974,1.74167 -1.56455,4.1783 -2.05513,5.41475 -0.49058,1.23644 -0.89197,2.51144 -0.89197,2.83333 v 0.58525 h 37.33333 c 20.53334,0 37.33334,0.16441 37.33334,0.36536 0,2.43217 -9.58409,13.98381 -17.46317,21.04826 l -5.8588,5.25305 h -49.33902 -49.33901 z m 122.82641,-0.17023 c 0.16631,-0.45834 5.65241,-15.60834 12.19131,-33.66667 l 11.88892,-32.83333 h 18.88001 18.88001 l -3.3e-4,0.5 c -1.9e-4,0.275 -0.62909,2.15 -1.39757,4.16666 -0.76848,2.01667 -2.274,6.06667 -3.34559,9 l -1.94835,5.33334 8.52186,-8.5 8.52186,-8.5 h 16.74243 16.74244 l 0.82992,-1 0.82993,-1 h 19.62996 19.62996 l -0.44254,1.5 c -0.2434,0.825 -1.15517,3.09279 -2.02615,5.03954 l -1.5836,3.53954 -3.69331,3.54868 -3.69331,3.54868 -4.49214,2.32922 c -7.43546,3.85538 -14.94646,5.90884 -27.00301,7.38246 l -6.51087,0.7958 18.51087,18.91598 c 10.18099,10.40378 18.75079,19.3249 19.044,19.8247 l 0.53313,0.90873 h -20.88759 -20.8876 l -20.25542,-18.66667 c -11.14048,-10.26666 -20.49906,-18.66666 -20.79683,-18.66666 -1.08274,0 -2.49013,3.31448 -8.56317,20.16666 l -6.18638,17.16667 h -18.98262 -18.98263 z m 161.64884,-0.34319 c -0.5856,-0.64708 -1.41902,-2.52208 -1.85204,-4.16666 l -0.78732,-2.99015 -0.3148,-29.47704 -0.31481,-29.47703 16.37651,-0.18963 16.37651,-0.18964 0.18701,7 0.18702,7 4.48952,-6.83333 4.4895,-6.83333 h 28.6771 28.6772 l 0.067,3.5 c 0.036,1.925 0.2629,4.19847 0.503,5.05215 l 0.4366,1.55216 2.9969,-5.0331 2.997,-5.03309 17.2433,-0.0191 17.2434,-0.0191 -1.2128,1.83333 c -0.6671,1.00833 -8.8475,13.68333 -18.1786,28.16667 -17.6492,27.39397 -21.328,32.67491 -24.7943,35.59156 l -2.07,1.74177 h -12.2668 -12.2668 l -1.0359,-1.58092 -1.0358,-1.58093 -0.968,-5.25241 c -0.5323,-2.88882 -1.7085,-12.2628 -2.6137,-20.83105 -0.9051,-8.56826 -1.7353,-15.66745 -1.8449,-15.77598 -0.1095,-0.10853 -4.0991,5.38142 -8.8658,12.1999 -16.5838,23.72229 -20.01305,28.45652 -22.18884,30.63241 l -2.18889,2.18898 h -12.54112 -12.54112 z m 132.8592,0.67652 c 6e-4,-0.275 5.3782,-15.35 11.9502,-33.5 l 11.9491,-33 19.1251,-0.17701 19.1251,-0.17702 -0.4687,1.17702 c -1.9745,4.95886 -6.3486,17.21108 -6.3486,17.78297 0,0.38986 3.9831,-3.266 8.8512,-8.12415 l 8.8512,-8.833 22.8378,0.1756 22.8377,0.17559 -13.8556,13.13046 -13.8556,13.13046 -19.7441,0.0362 -19.744,0.0362 -1.8628,5.16667 c -1.0245,2.84167 -1.9967,5.54167 -2.1606,6 l -0.2978,0.83333 h 37.4046 37.4047 v 0.4128 c 0,0.22703 -1.0981,2.25203 -2.4402,4.5 l -2.4402,4.0872 -8.909,8.83334 -8.909,8.83333 h -49.6508 -49.6508 z m 122.7766,-0.12779 c 0.1223,-0.34528 5.6223,-15.49389 12.2223,-33.66357 l 12,-33.03577 18.8333,-0.003 c 10.3583,-0.002 18.8333,0.12552 18.8333,0.28272 0,0.1572 -1.6261,4.7322 -3.6135,10.16667 -1.9875,5.43446 -5.2539,14.38084 -7.2588,19.88084 l -3.6453,10 30.9255,0.17326 30.9255,0.17326 -0.01,0.4934 c -0.018,1.50796 -17.3827,21.69372 -21.1021,24.53065 l -2.1363,1.62943 h -43.1 -43.1001 z m 110.5695,-0.14054 c 0.01,-0.49409 5.3363,-15.59834 11.8414,-33.565 l 11.8276,-32.66667 19.1586,-0.17689 c 10.5372,-0.0973 19.1585,-0.0307 19.1585,0.14797 0,0.17868 -3.15,9.05584 -7,19.72702 -3.85,10.67118 -7,19.72361 -7,20.11651 v 0.71437 l 4.9163,-0.41558 4.9162,-0.41557 5.5838,-1.76105 c 8.8393,-2.78783 16.3026,-6.80583 24.4564,-13.16651 l 4.2061,-3.28109 3.7434,-5.06183 3.7434,-5.06183 2.2172,-5.11639 c 1.2195,-2.81402 2.2172,-5.44626 2.2172,-5.84943 v -0.73303 h 19.6667 c 10.8166,0 19.6666,0.17383 19.6666,0.38629 0,0.91997 -3.6662,9.54053 -5.2227,12.28037 -12.3732,21.78008 -27.9217,37.84475 -44.1478,45.61336 l -6.2961,3.0144 -6,1.72034 c -3.3,0.94618 -8.85,2.19608 -12.3334,2.77756 l -6.3333,1.05722 -31.5,0.30689 -31.5,0.3069 z M 329.11651,218.70038 c 0,-0.47097 2.87345,-8.44722 8.39052,-23.29081 l 1.0531,-2.83334 h 18.61152 18.61153 l -0.0311,0.83334 c -0.0171,0.45833 -2.0631,6.38333 -4.54668,13.16666 l -4.51561,12.33334 -18.78665,0.17704 -18.78666,0.17705 z m 140.12415,-4.86309 c 2.31505,-2.97308 5.85919,-7.5254 7.87585,-10.11627 l 3.66667,-4.71067 4.20435,-3.21706 4.20436,-3.21706 h 17.57783 17.57783 l 2.0136,1.69434 2.0136,1.69433 1.40426,3.7532 c 1.79064,4.78593 3.77338,12.28655 4.32417,16.35813 l 0.42837,3.16667 H 499.7815 465.03146 Z m 110.54252,4.50734 c 0,-5.13044 13.87327,-20.48337 21.97483,-24.31857 l 2.3585,-1.11649 42.33334,-0.18737 c 23.28333,-0.10305 46.94403,-0.10305 52.57933,0 l 10.24599,0.18737 -4.88309,6.33333 c -2.6857,3.48333 -7.86785,9.40833 -11.51588,13.16667 l -6.6328,6.83333 h -53.23011 -53.23011 z m 133.74048,-7.60173 c 1.6736,-4.675 3.82205,-10.675 4.77433,-13.33333 l 1.73142,-4.83334 h 56.24791 56.24791 l -1.20436,2.0486 c -2.68839,4.57294 -10.13565,13.94178 -15.19687,19.11807 l -5.37774,5.5 h -50.13275 -50.13276 z m 120.25952,7.99733 c 0,-0.27647 2.06126,-6.20147 4.58057,-13.16666 l 4.58056,-12.664 h 46.91944 46.91943 l 2.33333,1.25801 c 1.28334,0.6919 3.45971,2.1432 4.83639,3.2251 l 2.50306,1.9671 2.26189,4.77489 2.26189,4.7749 0.73505,4.38794 c 0.40428,2.41337 0.73506,4.73837 0.73506,5.16666 v 0.77873 h -59.33334 -59.33333 z m 130,-12.83066 v -13.33334 h 16.33333 16.33334 v 13.33334 13.33333 h -16.33334 -16.33333 z m 49.33332,12.98481 c 0,-0.19169 3.7963,-6.19169 8.4363,-13.33333 l 8.4362,-12.98482 h 15.1706 15.1705 l 0.4001,5.5 c 0.22,3.025 0.628,9.025 0.9065,13.33334 l 0.5065,7.83333 h -24.5133 c -13.4824,0 -24.5134,-0.15684 -24.5134,-0.34852 z m 72.4155,-12.98481 8.3556,-13.33334 h 17.3367 17.3366 l -0.2222,0.57463 c -0.1222,0.31604 -3.9722,6.31489 -8.5555,13.33077 l -8.3334,12.75614 -17.1367,0.003 -17.1367,0.003 z m 44.548,7.16666 c 1.2316,-3.39166 3.3959,-9.31666 4.8096,-13.16666 l 2.5704,-7 56.1616,-0.17046 56.1616,-0.17045 v 0.52264 c 0,1.85379 -15.4293,20.69569 -19.9138,24.31827 l -2.2696,1.83333 h -49.8795 -49.8796 z m 121.0365,5.85608 c 0,-0.29285 7.8412,-22.19637 9.0175,-25.18941 l 0.4585,-1.16667 h 18.6483 18.6483 l -0.4109,1.83334 c -0.2259,1.00833 -2.2866,6.93333 -4.5792,13.16666 l -4.1684,11.33334 -18.8071,0.17704 c -10.3438,0.0974 -18.807,0.0279 -18.807,-0.1543 z m 110.1767,-0.52274 c 0.1756,-0.45834 2.36,-6.47156 4.8542,-13.36271 l 4.5349,-12.52937 46.3838,0.19604 46.3837,0.19604 3.4945,1.5797 3.4944,1.57969 2.414,2.67204 2.414,2.67203 1.3462,3.04324 1.3462,3.04325 0.5489,4.89478 0.5489,4.89478 -0.3748,0.97691 -0.3749,0.97691 h -58.6667 -58.6666 z"
         id="path1"
         sodipodi:nodetypes="sscssscccsscccsccsscsssscssssscsssscccssscsscccccscccccccccccccccsccccccccccccccccccssccccccccsscccssscccccccssscssscccssscccssscccccccccsscccsscsscccssscccscsccccccccccccscccccscsccccccssssccccsscccssscccccccsscccsscccccscsccsssccccscccccscsssscccsscccsscsssscssccccsscccsscccssscccccccsscccssscsscsscccssscccsscccssscccsscccsscccscccccccccsscccsscssccccssccccsscccsscccssscccsscsssscccccccccccccccs" />
    </g>
  </g>
</svg>
