<?xml version="1.0" encoding="UTF-8" standalone="no"?>
<!-- Created with Inkscape (http://www.inkscape.org/) -->

<svg
   width="11in"
   height="8.5in"
   viewBox="0 0 1056 816"
   version="1.1"
   id="svg1"
   xml:space="preserve"
   inkscape:version="1.3.2 (091e20ef0f, 2023-11-25)"
   sodipodi:docname="bottled.water.svg"
   xmlns:inkscape="http://www.inkscape.org/namespaces/inkscape"
   xmlns:sodipodi="http://sodipodi.sourceforge.net/DTD/sodipodi-0.dtd"
   xmlns="http://www.w3.org/2000/svg"
   xmlns:svg="http://www.w3.org/2000/svg"><sodipodi:namedview
     id="namedview1"
     pagecolor="#ffffff"
     bordercolor="#000000"
     borderopacity="0.25"
     inkscape:showpageshadow="2"
     inkscape:pageopacity="0.0"
     inkscape:pagecheckerboard="0"
     inkscape:deskcolor="#d1d1d1"
     inkscape:document-units="px"
     showguides="true"
     inkscape:zoom="0.95754043"
     inkscape:cx="681.95554"
     inkscape:cy="469.95405"
     inkscape:window-width="2508"
     inkscape:window-height="1014"
     inkscape:window-x="42"
     inkscape:window-y="31"
     inkscape:window-maximized="1"
     inkscape:current-layer="layer1" /><defs
     id="defs1"><rect
       x="363.28959"
       y="564.13184"
       width="274.98262"
       height="42.820681"
       id="rect34" /><rect
       x="1101.8859"
       y="184.49113"
       width="819.21733"
       height="799.17471"
       id="rect26" /><rect
       x="526.77203"
       y="438.12378"
       width="479.75083"
       height="484.13412"
       id="rect15" /><rect
       x="524.56525"
       y="459.16031"
       width="895.33203"
       height="371.56284"
       id="rect14" /><rect
       x="457.84851"
       y="434.24066"
       width="1011.1046"
       height="408.8291"
       id="rect13" /></defs><g
     inkscape:label="Layer 1"
     inkscape:groupmode="layer"
     id="layer1"><g
       style="fill:#000000"
       id="g3"
       transform="matrix(0.38483022,0,0,0.38483022,194.01236,590.90643)"><g
         id="g2">
	<g
   id="g1">
		<path
   d="m 358.079,149.289 c 0,-10.352 -3.787,-20.314 -10.665,-28.051 l -55.449,-62.38 c -1.48,-1.665 -2.295,-3.808 -2.295,-6.036 V 48.16 c 5.093,-2.829 8.551,-8.26 8.551,-14.489 V 16.569 C 298.221,7.432 290.789,0 281.653,0 H 230.346 C 221.21,0 213.778,7.432 213.778,16.568 V 33.67 c 0,6.228 3.458,11.659 8.551,14.489 v 4.663 c 0,2.228 -0.816,4.371 -2.295,6.036 l -55.449,62.381 c -6.877,7.737 -10.665,17.699 -10.665,28.051 v 46.853 c 0,6.603 2.564,12.614 6.745,17.102 -4.18,4.488 -6.745,10.5 -6.745,17.102 v 8.551 c 0,6.603 2.564,12.614 6.745,17.102 -4.18,4.488 -6.745,10.5 -6.745,17.102 v 8.551 c 0,6.603 2.564,12.614 6.745,17.102 -4.18,4.488 -6.745,10.5 -6.745,17.102 v 8.551 c 0,6.603 2.564,12.614 6.745,17.102 -4.18,4.488 -6.745,10.5 -6.745,17.102 v 8.551 c 0,6.603 2.564,12.614 6.745,17.102 -4.18,4.488 -6.745,10.5 -6.745,17.102 v 8.551 c 0,6.603 2.564,12.614 6.745,17.102 -4.18,4.488 -6.745,10.5 -6.745,17.102 v 25.653 c 0,23.281 18.941,42.221 42.221,42.221 h 119.716 c 23.281,0 42.221,-18.941 42.221,-42.221 v -25.653 c 0,-6.603 -2.564,-12.614 -6.745,-17.102 4.18,-4.488 6.745,-10.5 6.745,-17.102 v -8.551 c 0,-6.603 -2.564,-12.614 -6.745,-17.102 4.18,-4.488 6.745,-10.5 6.745,-17.102 v -8.551 c 0,-6.603 -2.564,-12.614 -6.745,-17.102 4.18,-4.488 6.745,-10.5 6.745,-17.102 v -8.551 c 0,-6.603 -2.564,-12.614 -6.745,-17.102 4.18,-4.488 6.745,-10.5 6.745,-17.102 v -8.551 c 0,-6.603 -2.564,-12.614 -6.745,-17.102 4.18,-4.488 6.745,-10.5 6.745,-17.102 v -8.551 c 0,-6.603 -2.564,-12.614 -6.745,-17.102 4.18,-4.488 6.745,-10.5 6.745,-17.102 V 149.289 Z M 229.812,16.568 c 0,-0.295 0.239,-0.534 0.534,-0.534 h 51.307 c 0.295,0 0.534,0.239 0.534,0.534 V 33.67 c 0,0.295 -0.239,0.534 -0.534,0.534 h -51.307 c -0.295,0 -0.534,-0.239 -0.534,-0.534 z m -53.244,115.323 55.45,-62.381 c 4.092,-4.604 6.345,-10.53 6.345,-16.688 v -2.585 h 35.273 v 2.584 c 0,6.158 2.253,12.085 6.345,16.689 l 55.449,62.381 c 1.346,1.514 2.476,3.176 3.427,4.928 H 173.143 c 0.95,-1.753 2.081,-3.416 3.425,-4.928 z m 165.478,337.888 c 0,14.44 -11.748,26.188 -26.188,26.188 H 196.142 c -14.44,0 -26.188,-11.748 -26.188,-26.188 v -25.653 c 0,-5.01 4.076,-9.086 9.086,-9.086 h 153.92 c 5.01,0 9.086,4.076 9.086,9.086 z m 0,-59.858 c 0,5.01 -4.076,9.086 -9.086,9.086 H 179.04 c -5.01,0 -9.086,-4.076 -9.086,-9.086 v -8.551 c 0,-5.01 4.076,-9.086 9.086,-9.086 h 153.92 c 5.01,0 9.086,4.076 9.086,9.086 z m 0,-42.756 c 0,5.01 -4.076,9.086 -9.086,9.086 H 179.04 c -5.01,0 -9.086,-4.076 -9.086,-9.086 v -8.551 c 0,-5.01 4.076,-9.086 9.086,-9.086 h 153.92 c 5.01,0 9.086,4.076 9.086,9.086 z m 0,-42.756 c 0,5.01 -4.076,9.086 -9.086,9.086 H 179.04 c -5.01,0 -9.086,-4.076 -9.086,-9.086 v -8.551 c 0,-5.01 4.076,-9.086 9.086,-9.086 h 153.92 c 5.01,0 9.086,4.076 9.086,9.086 z m 0,-42.756 c 0,5.01 -4.076,9.086 -9.086,9.086 H 179.04 c -5.01,0 -9.086,-4.076 -9.086,-9.086 v -8.551 c 0,-5.01 4.076,-9.086 9.086,-9.086 h 153.92 c 5.01,0 9.086,4.076 9.086,9.086 z m 0,-42.755 c 0,5.01 -4.076,9.086 -9.086,9.086 H 179.04 c -5.01,0 -9.086,-4.076 -9.086,-9.086 v -8.551 c 0,-5.01 4.076,-9.086 9.086,-9.086 h 153.92 c 5.01,0 9.086,4.076 9.086,9.086 z m 0,-42.756 c 0,5.01 -4.076,9.086 -9.086,9.086 H 179.04 c -5.01,0 -9.086,-4.076 -9.086,-9.086 v -43.29 h 172.092 z"
   id="path1"
   style="fill:#065f91;fill-opacity:1" />
	</g>
</g></g><rect
       style="opacity:0.5;fill:#e2deac;fill-opacity:1;stroke:none;stroke-width:0.937448;stroke-dasharray:none;stroke-opacity:1"
       id="rect24"
       width="328.13202"
       height="136.24017"
       x="585.14178"
       y="640.75671" /><g
       style="fill:none"
       id="g4"
       transform="matrix(4.3963355,0,0,4.3963355,402.54587,649.33302)"><path
         d="M 3.74181,20.5545 C 4.94143,22 7.17414,22 11.6395,22 h 0.7212 c 4.4654,0 6.6982,0 7.8978,-1.4455 m -16.51669,0 C 2.54219,19.1091 2.95365,16.9146 3.77657,12.5257 4.36179,9.40452 4.65441,7.84393 5.7653,6.92196 M 3.74181,20.5545 Z m 16.51669,0 C 21.4581,19.1091 21.0466,16.9146 20.2237,12.5257 19.6385,9.40452 19.3459,7.84393 18.235,6.92196 M 20.2585,20.5545 Z M 18.235,6.92196 C 17.1241,6 15.5363,6 12.3607,6 H 11.6395 C 8.46398,6 6.8762,6 5.7653,6.92196 m 12.4697,0 z m -12.4697,0 z"
         stroke="#1c274c"
         stroke-width="1.5"
         id="path1-3"
         style="stroke:#025897;stroke-width:0.481696;stroke-dasharray:none;stroke-opacity:1" /><path
         d="M 9,6 V 5 c 0,-1.65685 1.3431,-3 3,-3 1.6569,0 3,1.34315 3,3 v 1"
         stroke="#1c274c"
         stroke-width="1.5"
         stroke-linecap="round"
         id="path2"
         style="stroke:#025897;stroke-width:0.481696;stroke-dasharray:none;stroke-opacity:1" /></g><g
       id="g5"
       transform="matrix(0.06938447,0,0,0.06938447,708.45084,668.30805)"><path
         d="m 514.5,516.6 m -484.5,0 a 484.5,484.5 0 1 0 969,0 484.5,484.5 0 1 0 -969,0 z"
         fill="#44c0c6"
         id="path1-6" /><path
         d="M 514.5,1011 C 447.8,1011 383,997.9 322,972.1 263.1,947.2 210.2,911.5 164.8,866.1 119.4,820.7 83.7,767.8 58.8,708.9 33,647.9 19.9,583.2 19.9,516.4 19.9,449.6 33,384.9 58.8,323.9 83.7,265 119.4,212.1 164.8,166.7 210.2,121.3 263.1,85.6 322,60.7 383,34.9 447.7,21.8 514.5,21.8 581.3,21.8 646,35.2 707,61 c 58.9,24.9 111.8,60.6 157.2,106 45.4,45.4 81.1,98.3 106,157.2 25.8,61 38.9,125.7 38.9,192.5 0,66.8 -13.1,131.5 -38.9,192.5 -24.9,58.9 -60.6,111.8 -106,157.2 -45.4,45.4 -98.3,81.1 -157.2,106 C 646,998 581.3,1011 514.5,1011 Z m 0,-968.9 C 450.4,42.1 388.3,54.6 329.8,79.4 273.3,103.3 222.6,137.5 179,181.1 135.4,224.7 101.2,275.4 77.3,331.9 52.6,390.4 40,452.5 40,516.6 c 0,64.1 12.5,126.2 37.3,184.7 23.9,56.5 58.1,107.2 101.7,150.8 43.6,43.6 94.3,77.8 150.8,101.7 58.5,24.7 120.6,37.3 184.7,37.3 64.1,0 126.2,-12.5 184.7,-37.3 C 755.7,929.9 806.4,895.7 850,852.1 893.6,808.5 927.8,757.8 951.7,701.3 976.4,642.8 989,580.7 989,516.6 989,452.5 976.5,390.4 951.7,331.9 927.8,275.4 893.6,224.7 850,181.1 806.4,137.5 755.7,103.3 699.2,79.4 640.7,54.7 578.6,42.1 514.5,42.1 Z"
         fill=""
         id="path2-7" /><path
         d="m 528,32.8 c -59.5,70.5 -113.4,163.3 15.1,163.3 207.4,0 153.4,152.8 -78.8,163.7 -232.3,10.9 -166.8,174.7 -35.8,191 80.6,10.1 109.4,51.1 119.8,90.1 v 1.5 c 0,21.4 2.1,41.8 5.8,60.7 v 0.4 c 0,2.4 0.5,4.6 1.4,6.5 14.2,64.5 47.9,77.2 87.3,77.2 52.2,0 87.2,-108.9 93.5,-168.8 9.7,-90.8 101.9,-90.2 96.1,-204.2 -1.7,-32.9 84.3,-34.1 148.2,-29 C 924.5,185.8 744,38.7 528,32.8 Z"
         fill="#60c13d"
         id="path3" /><path
         d="m 642.7,797.4 c -36.4,0 -80.2,-9.6 -96.9,-84.1 -1.1,-2.8 -1.7,-5.9 -1.8,-9.1 -3.8,-20.2 -5.8,-40.9 -5.8,-61.7 v -0.3 c -13,-47 -49.4,-73.7 -111,-81.4 -34.9,-4.4 -67.4,-18.9 -91.4,-40.9 -23.8,-21.8 -36.8,-49 -35.8,-74.7 0.7,-18 8.4,-43.8 41.4,-64.6 28.4,-17.9 69.6,-28.2 122.4,-30.7 76.5,-3.6 124,-21.9 150.4,-36.7 30.6,-17.1 48.6,-38.6 48.1,-57.4 -0.5,-22.9 -32.1,-49.6 -119.2,-49.6 -45.4,0 -73.7,-11.6 -84.3,-34.4 -8.3,-17.9 -5,-41.9 9.9,-71.2 11,-21.6 28.4,-46.6 51.7,-74.2 2,-2.3 4.9,-3.6 7.9,-3.5 54,1.5 106.9,11.6 157.2,30.1 48.7,17.9 94.1,43.4 135,75.7 40.5,32 75.6,69.9 104.4,112.7 29.2,43.5 51.2,91 65.3,141.3 0.9,3.1 0.2,6.5 -1.9,9.1 -2.1,2.5 -5.3,3.9 -8.5,3.6 -69.5,-5.6 -121.1,-0.8 -134.8,12.5 -2.5,2.4 -2.7,4.4 -2.7,6 3.4,67 -26,98.2 -52,125.7 -20.6,21.9 -40.1,42.5 -44.1,80 -3.7,34.9 -15.7,78 -30.5,110 -20.5,44.4 -45.7,67.8 -73,67.8 z M 532.5,42.9 c -46.2,55.5 -65.9,98.2 -55.6,120.4 8.8,18.8 40.8,22.8 66.2,22.8 43,0 77.2,6.3 101.6,18.7 23.7,12.1 37.1,30 37.5,50.5 0.6,26.8 -20.6,54.3 -58.3,75.3 -28.3,15.8 -78.8,35.4 -159.2,39.2 -89,4.2 -143.1,32.6 -144.8,76.1 -0.8,19.8 9.9,41.4 29.3,59.2 21,19.3 49.6,32 80.4,35.8 70.2,8.8 113.4,41.6 128.2,97.5 0.2,0.8 0.3,1.7 0.3,2.6 v 1.5 c 0,19.8 1.9,39.6 5.6,58.8 0.1,0.6 0.2,1.3 0.2,1.9 v 0.4 c 0,0.9 0.2,1.7 0.5,2.4 0.3,0.6 0.5,1.3 0.7,2 12.6,57.5 40.2,69.3 77.6,69.3 25.1,0 45.2,-35.2 54.9,-56.1 16.9,-36.6 26.1,-78.8 28.7,-103.7 4.7,-44.2 27.5,-68.3 49.4,-91.6 25.5,-27 49.6,-52.6 46.6,-111 -0.4,-8 2.6,-15.4 8.7,-21.3 11,-10.6 32.2,-17 65,-19.4 24.1,-1.8 50,-1 70.8,0.2 C 953.2,331.2 933.6,290.3 908.2,252.5 880.6,211.4 846.9,175 808,144.3 768.8,113.3 725.2,88.9 678.4,71.7 631.7,54.5 582.6,44.8 532.5,42.9 Z"
         fill=""
         id="path4" /></g><text
       xml:space="preserve"
       style="font-weight:600;font-size:52.1518px;font-family:'Noto Sans';-inkscape-font-specification:'Noto Sans Semi-Bold';text-align:center;text-anchor:middle;fill:#065f91;fill-opacity:1;stroke:#025897;stroke-width:1.22231;stroke-dasharray:none;stroke-opacity:1"
       x="254.02055"
       y="62.278126"
       id="text5"><tspan
         sodipodi:role="line"
         x="254.02055"
         y="62.278126"
         style="font-style:normal;font-variant:normal;font-weight:normal;font-stretch:normal;font-size:52.1518px;font-family:'Moonlight Ai';-inkscape-font-specification:'Moonlight Ai';stroke-width:1.22231"
         id="tspan28">A Healthier Planet</tspan></text><text
       xml:space="preserve"
       id="text13"
       style="font-style:normal;font-variant:normal;font-weight:normal;font-stretch:normal;font-size:29.3333px;font-family:'Noto Sans';-inkscape-font-specification:'Noto Sans';text-align:start;white-space:pre;shape-inside:url(#rect13);display:inline;fill:#1a1a1a;fill-opacity:1;stroke:#000000;stroke-width:2;stroke-dasharray:none;stroke-opacity:1" /><text
       xml:space="preserve"
       id="text14"
       style="font-style:normal;font-variant:normal;font-weight:normal;font-stretch:normal;font-size:29.3333px;font-family:'Noto Sans';-inkscape-font-specification:'Noto Sans';text-align:start;white-space:pre;shape-inside:url(#rect14);display:inline;fill:#1a1a1a;fill-opacity:1;stroke:#000000;stroke-width:2;stroke-dasharray:none;stroke-opacity:1" /><text
       xml:space="preserve"
       id="text15"
       style="font-style:normal;font-variant:normal;font-weight:normal;font-stretch:normal;font-size:30.732px;font-family:'Noto Sans';-inkscape-font-specification:'Noto Sans';text-align:start;white-space:pre;shape-inside:url(#rect15);display:inline;fill:#008080;fill-opacity:1;stroke:none;stroke-width:1.2156;stroke-dasharray:none;stroke-opacity:1"
       transform="matrix(1.0412589,0,0,1.0412589,-534.01696,-352.63593)"
       x="702.78174"
       y="0"><tspan
         x="574.47473"
         y="466.08533"
         id="tspan30"><tspan
           style="font-weight:bold;font-family:'Liberation Sans';-inkscape-font-specification:'Liberation Sans Bold';text-align:end;text-anchor:end"
           id="tspan16">Bottled water leads to wasted </tspan></tspan><tspan
         x="539.12092"
         y="504.78064"
         id="tspan32"><tspan
           style="font-weight:bold;font-family:'Liberation Sans';-inkscape-font-specification:'Liberation Sans Bold';text-align:end;text-anchor:end"
           id="tspan31">plastic, money, time and space. 
</tspan></tspan><tspan
         x="552.35609"
         y="543.47596"
         id="tspan35"><tspan
           style="font-weight:bold;font-family:'Liberation Sans';-inkscape-font-specification:'Liberation Sans Bold';text-align:end;text-anchor:end"
           id="tspan33">Caleb is running out of storage </tspan></tspan><tspan
         x="562.31998"
         y="582.17127"
         id="tspan75"><tspan
           style="font-weight:bold;font-family:'Liberation Sans';-inkscape-font-specification:'Liberation Sans Bold';text-align:end;text-anchor:end"
           id="tspan73">space </tspan><tspan
           style="font-weight:bold;font-family:'Liberation Sans';-inkscape-font-specification:'Liberation Sans Bold';text-align:end;text-anchor:end"
           id="tspan74">each year as LW carries </tspan></tspan><tspan
         x="664.97507"
         y="620.86658"
         id="tspan78"><tspan
           style="font-weight:bold;font-family:'Liberation Sans';-inkscape-font-specification:'Liberation Sans Bold';text-align:end;text-anchor:end"
           id="tspan76">more </tspan><tspan
           style="font-weight:bold;font-family:'Liberation Sans';-inkscape-font-specification:'Liberation Sans Bold';text-align:end;text-anchor:end"
           id="tspan77">supplies for more </tspan></tspan><tspan
         x="839.11807"
         y="659.56189"
         id="tspan80"><tspan
           style="font-weight:bold;font-family:'Liberation Sans';-inkscape-font-specification:'Liberation Sans Bold';text-align:end;text-anchor:end"
           id="tspan79">employees.
</tspan></tspan><tspan
         x="591.5514"
         y="698.25721"
         id="tspan82"><tspan
           style="font-weight:bold;font-family:'Liberation Sans';-inkscape-font-specification:'Liberation Sans Bold';fill:#333333"
           id="tspan81">The painters need water, but </tspan></tspan><tspan
         x="640.96569"
         y="736.95252"
         id="tspan84"><tspan
           style="font-weight:bold;font-family:'Liberation Sans';-inkscape-font-specification:'Liberation Sans Bold';fill:#333333"
           id="tspan83">their work area is heavily </tspan></tspan><tspan
         x="798.19709"
         y="775.64783"
         id="tspan87"><tspan
           style="font-weight:bold;font-family:'Liberation Sans';-inkscape-font-specification:'Liberation Sans Bold';fill:#333333"
           id="tspan85">contaminated.</tspan><tspan
           style="font-weight:bold;font-family:'Liberation Sans';-inkscape-font-specification:'Liberation Sans Bold';text-align:end;text-anchor:end"
           id="tspan86">
</tspan></tspan><tspan
         x="555.67239"
         y="814.34314"
         id="tspan89"><tspan
           style="font-weight:bold;font-family:'Liberation Sans';-inkscape-font-specification:'Liberation Sans Bold';text-align:end;text-anchor:end"
           id="tspan88">Bottled water was a generous,  </tspan></tspan><tspan
         x="533.53874"
         y="853.03846"
         id="tspan91"><tspan
           style="font-weight:bold;font-family:'Liberation Sans';-inkscape-font-specification:'Liberation Sans Bold';text-align:end;text-anchor:end"
           id="tspan90">temporary solution, but we need </tspan></tspan><tspan
         x="675.26909"
         y="891.73377"
         id="tspan93"><tspan
           style="font-weight:bold;font-family:'Liberation Sans';-inkscape-font-specification:'Liberation Sans Bold';text-align:end;text-anchor:end"
           id="tspan92">a longer term solution.
</tspan></tspan><tspan
         x="526.77148"
         y="930.42908"
         id="tspan95"><tspan
           style="font-weight:bold;font-family:'Liberation Sans';-inkscape-font-specification:'Liberation Sans Bold';text-align:end;text-anchor:end"
           id="tspan94">
</tspan></tspan></text><g
       id="g20"
       transform="matrix(0.20302303,0,0,0.20302303,391.08167,536.08938)"><g
         style="fill:#000000"
         id="g18"
         transform="matrix(0.5914669,0,0,0.5914669,1122.3066,706.52732)"><g
           id="g17">
	<g
   id="g16">
		<path
   d="m 358.079,149.289 c 0,-10.352 -3.787,-20.314 -10.665,-28.051 l -55.449,-62.38 c -1.48,-1.665 -2.295,-3.808 -2.295,-6.036 V 48.16 c 5.093,-2.829 8.551,-8.26 8.551,-14.489 V 16.569 C 298.221,7.432 290.789,0 281.653,0 H 230.346 C 221.21,0 213.778,7.432 213.778,16.568 V 33.67 c 0,6.228 3.458,11.659 8.551,14.489 v 4.663 c 0,2.228 -0.816,4.371 -2.295,6.036 l -55.449,62.381 c -6.877,7.737 -10.665,17.699 -10.665,28.051 v 46.853 c 0,6.603 2.564,12.614 6.745,17.102 -4.18,4.488 -6.745,10.5 -6.745,17.102 v 8.551 c 0,6.603 2.564,12.614 6.745,17.102 -4.18,4.488 -6.745,10.5 -6.745,17.102 v 8.551 c 0,6.603 2.564,12.614 6.745,17.102 -4.18,4.488 -6.745,10.5 -6.745,17.102 v 8.551 c 0,6.603 2.564,12.614 6.745,17.102 -4.18,4.488 -6.745,10.5 -6.745,17.102 v 8.551 c 0,6.603 2.564,12.614 6.745,17.102 -4.18,4.488 -6.745,10.5 -6.745,17.102 v 8.551 c 0,6.603 2.564,12.614 6.745,17.102 -4.18,4.488 -6.745,10.5 -6.745,17.102 v 25.653 c 0,23.281 18.941,42.221 42.221,42.221 h 119.716 c 23.281,0 42.221,-18.941 42.221,-42.221 v -25.653 c 0,-6.603 -2.564,-12.614 -6.745,-17.102 4.18,-4.488 6.745,-10.5 6.745,-17.102 v -8.551 c 0,-6.603 -2.564,-12.614 -6.745,-17.102 4.18,-4.488 6.745,-10.5 6.745,-17.102 v -8.551 c 0,-6.603 -2.564,-12.614 -6.745,-17.102 4.18,-4.488 6.745,-10.5 6.745,-17.102 v -8.551 c 0,-6.603 -2.564,-12.614 -6.745,-17.102 4.18,-4.488 6.745,-10.5 6.745,-17.102 v -8.551 c 0,-6.603 -2.564,-12.614 -6.745,-17.102 4.18,-4.488 6.745,-10.5 6.745,-17.102 v -8.551 c 0,-6.603 -2.564,-12.614 -6.745,-17.102 4.18,-4.488 6.745,-10.5 6.745,-17.102 V 149.289 Z M 229.812,16.568 c 0,-0.295 0.239,-0.534 0.534,-0.534 h 51.307 c 0.295,0 0.534,0.239 0.534,0.534 V 33.67 c 0,0.295 -0.239,0.534 -0.534,0.534 h -51.307 c -0.295,0 -0.534,-0.239 -0.534,-0.534 z m -53.244,115.323 55.45,-62.381 c 4.092,-4.604 6.345,-10.53 6.345,-16.688 v -2.585 h 35.273 v 2.584 c 0,6.158 2.253,12.085 6.345,16.689 l 55.449,62.381 c 1.346,1.514 2.476,3.176 3.427,4.928 H 173.143 c 0.95,-1.753 2.081,-3.416 3.425,-4.928 z m 165.478,337.888 c 0,14.44 -11.748,26.188 -26.188,26.188 H 196.142 c -14.44,0 -26.188,-11.748 -26.188,-26.188 v -25.653 c 0,-5.01 4.076,-9.086 9.086,-9.086 h 153.92 c 5.01,0 9.086,4.076 9.086,9.086 z m 0,-59.858 c 0,5.01 -4.076,9.086 -9.086,9.086 H 179.04 c -5.01,0 -9.086,-4.076 -9.086,-9.086 v -8.551 c 0,-5.01 4.076,-9.086 9.086,-9.086 h 153.92 c 5.01,0 9.086,4.076 9.086,9.086 z m 0,-42.756 c 0,5.01 -4.076,9.086 -9.086,9.086 H 179.04 c -5.01,0 -9.086,-4.076 -9.086,-9.086 v -8.551 c 0,-5.01 4.076,-9.086 9.086,-9.086 h 153.92 c 5.01,0 9.086,4.076 9.086,9.086 z m 0,-42.756 c 0,5.01 -4.076,9.086 -9.086,9.086 H 179.04 c -5.01,0 -9.086,-4.076 -9.086,-9.086 v -8.551 c 0,-5.01 4.076,-9.086 9.086,-9.086 h 153.92 c 5.01,0 9.086,4.076 9.086,9.086 z m 0,-42.756 c 0,5.01 -4.076,9.086 -9.086,9.086 H 179.04 c -5.01,0 -9.086,-4.076 -9.086,-9.086 v -8.551 c 0,-5.01 4.076,-9.086 9.086,-9.086 h 153.92 c 5.01,0 9.086,4.076 9.086,9.086 z m 0,-42.755 c 0,5.01 -4.076,9.086 -9.086,9.086 H 179.04 c -5.01,0 -9.086,-4.076 -9.086,-9.086 v -8.551 c 0,-5.01 4.076,-9.086 9.086,-9.086 h 153.92 c 5.01,0 9.086,4.076 9.086,9.086 z m 0,-42.756 c 0,5.01 -4.076,9.086 -9.086,9.086 H 179.04 c -5.01,0 -9.086,-4.076 -9.086,-9.086 v -43.29 h 172.092 z"
   id="path16"
   style="fill:#065f91;fill-opacity:1" />
	</g>
</g></g><g
         style="fill:none"
         id="g19"
         transform="matrix(22.586883,0,0,22.586883,990.11831,539.51656)"><path
           d="M 3.74181,20.5545 C 4.94143,22 7.17414,22 11.6395,22 h 0.7212 c 4.4654,0 6.6982,0 7.8978,-1.4455 m -16.51669,0 C 2.54219,19.1091 2.95365,16.9146 3.77657,12.5257 4.36179,9.40452 4.65441,7.84393 5.7653,6.92196 M 3.74181,20.5545 Z m 16.51669,0 C 21.4581,19.1091 21.0466,16.9146 20.2237,12.5257 19.6385,9.40452 19.3459,7.84393 18.235,6.92196 M 20.2585,20.5545 Z M 18.235,6.92196 C 17.1241,6 15.5363,6 12.3607,6 H 11.6395 C 8.46398,6 6.8762,6 5.7653,6.92196 m 12.4697,0 z m -12.4697,0 z"
           stroke="#1c274c"
           stroke-width="1.5"
           id="path18"
           style="stroke:#025897;stroke-width:0.481696;stroke-dasharray:none;stroke-opacity:1" /><path
           d="M 9,6 V 5 c 0,-1.65685 1.3431,-3 3,-3 1.6569,0 3,1.34315 3,3 v 1"
           stroke="#1c274c"
           stroke-width="1.5"
           stroke-linecap="round"
           id="path19"
           style="stroke:#025897;stroke-width:0.481696;stroke-dasharray:none;stroke-opacity:1" /></g></g><g
       id="g27"
       transform="matrix(0.494088,0,0,0.494088,45.349667,266.79399)"><path
         style="fill:#1a1a1a;fill-opacity:1;stroke:#000000;stroke-width:6.09963;stroke-dasharray:none;stroke-opacity:1"
         d="m 646.09738,873.87457 51.58416,0.10902"
         id="path21"
         sodipodi:nodetypes="cc" /><g
         id="g26"><path
           style="fill:#1a1a1a;fill-opacity:1;stroke:#000000;stroke-width:6.09963;stroke-dasharray:none;stroke-opacity:1"
           d="m 672.656,844.52788 -0.1501,58.28902"
           id="path22"
           sodipodi:nodetypes="cc" /></g></g><g
       id="g23"
       transform="matrix(0.494088,0,0,0.494088,262.74164,289.19363)"><path
         style="fill:#1a1a1a;fill-opacity:1;stroke:#000000;stroke-width:8;stroke-dasharray:none;stroke-opacity:1"
         d="m 528.20768,826.19264 59.57856,-0.23998"
         id="path20"
         sodipodi:nodetypes="cc" /><path
         style="fill:#1a1a1a;fill-opacity:1;stroke:#000000;stroke-width:5.34643;stroke-dasharray:none;stroke-opacity:1"
         d="m 572.07717,804.14917 20.6018,22.65754 -20.53592,21.66569 z"
         id="path23"
         sodipodi:nodetypes="cccc" /></g><g
       id="g24"
       transform="matrix(0.23597547,0,0,0.23597547,774.49677,649.90443)"><g
         transform="translate(1,1)"
         id="g7">
	<path
   style="fill:#ffd0a1"
   d="m 378.575,173.325 c 0,0 -68.3,-25.6 -68.3,-85.3 -17.1,29 -119.5,34.1 -153.6,34.1 0,17.1 -8.5,51.2 -17.1,68.3 l 34.1,25.6 v -8.5 c 0,-9.4 7.7,-17.1 17.1,-17.1 h 34.1 c 9.4,0 17.1,7.7 17.1,17.1 v 8.5 h 17.1 v -8.5 c 0,-9.4 7.7,-17.1 17.1,-17.1 h 34.1 c 9.4,0 17.1,7.7 17.1,17.1 v 8.5 l 51.2,-42.7 -51.2,42.7 c 0,14.5 -11.1,25.6 -25.6,25.6 h -17.1 c -14.5,0 -25.6,-11.1 -25.6,-25.6 h -17.1 c 0,14.5 -11.1,25.6 -25.6,25.6 h -17.1 c -14.5,0 -25.6,-11.1 -25.6,-25.6 l -34.1,-25.6 -17,-17.1 c -9.4,0 -17.1,7.7 -17.1,17.1 v 34.1 c 0,9.4 7.7,17.1 17.1,17.1 0,0 25.6,93.9 85.3,136.5 h 93.9 c 51.2,-42.7 76.8,-136.6 76.8,-136.6 9.4,0 17.1,-7.7 17.1,-17.1 v -34.1 c 0,-9.3 -7.7,-17 -17.1,-17 z"
   id="path1-2" />
	<path
   style="fill:#80d6fa"
   d="m 88.475,378.125 v 102.4 17 h 324.3 v -119.4 z m 409.6,-17.1 -34.1,59.7 34.1,59.7 h -85.3 v -102.3 -17.1 z m -409.6,17.1 v 102.4 h -85.4 l 34.1,-59.7 -34.1,-59.8 h 85.3 v 17.1 z"
   id="path2-9" />
	<path
   style="fill:#aab1ba"
   d="m 276.175,429.325 -13.7,11.1 6,17.1 -17.1,-7.7 -17.1,7.7 6,-17.1 -15.4,-11.1 h 17.1 l 8.5,-17.1 8.5,17.1 z m -85.3,0 -13.7,11.1 6,17.1 -17.1,-7.7 -17.1,7.7 6,-17.1 -15.4,-11.1 h 17.1 l 8.5,-17.1 8.5,17.1 z m 170.6,0 -13.7,11.1 6,17.1 -17.1,-7.7 -17.1,7.7 6,-17.1 -15.4,-11.1 h 17.1 l 8.5,-17.1 8.5,17.1 z"
   id="path3-1" />
	<path
   style="fill:#ae938d"
   d="m 378.575,122.125 v 51.2 c 0,0 -68.3,-25.6 -68.3,-85.3 -17.1,29 -119.5,34.1 -153.6,34.1 0,15.1 -6.7,43.7 -14.2,61.9 -1.3,3.1 -7.2,11.9 -15.7,-0.2 -1.6,-2.3 -4.3,-10.5 -4.3,-10.5 0,0 -18.7,-16.5 -17.1,-34.1 1.6,-17 0,-136.5 145.1,-136.5 30.7,0 51.2,8.5 42.7,25.6 85.4,-0.1 85.4,93.8 85.4,93.8"
   id="path4-2" />
	<g
   id="g6">
		<path
   style="fill:#e4f2de"
   d="m 327.375,207.425 v 8.5 c 0,14.5 -11.1,25.6 -25.6,25.6 h -17.1 c -14.5,0 -25.6,-11.1 -25.6,-25.6 v -8.5 c 0,-9.4 7.7,-17.1 17.1,-17.1 h 34.1 c 9.4,0 17.1,7.7 17.1,17.1 z m -85.3,0 v 8.5 c 0,14.5 -11.1,25.6 -25.6,25.6 h -17.1 c -14.5,0 -25.6,-11.1 -25.6,-25.6 v -8.5 c 0,-9.4 7.7,-17.1 17.1,-17.1 h 34.1 c 9.4,0 17.1,7.7 17.1,17.1 z"
   id="path5" />
		<path
   style="fill:#e4f2de"
   d="m 216.475,301.325 h 68.3 c 0,0 -6,34.1 -34.1,34.1 -28.1,0 -34.2,-34.1 -34.2,-34.1"
   id="path6" />
	</g>
</g><path
         style="fill:#51565f"
         d="m 354.875,462.925 c -0.6,0 -1.3,-0.1 -1.8,-0.4 l -15.2,-6.8 -15.3,6.8 c -1.6,0.7 -3.6,0.4 -4.9,-0.8 -1.3,-1.2 -1.8,-3.1 -1.2,-4.8 l 4.9,-13.9 -12.6,-9.1 c -1.6,-1.1 -2.2,-3.2 -1.6,-5 0.6,-1.9 2.3,-3.1 4.3,-3.1 h 14.1 l 7.3,-14.6 c 0.8,-1.5 2.3,-2.5 4,-2.5 1.7,0 3.3,1 4,2.5 l 7.3,14.6 h 14.3 c 1.9,0 3.6,1.2 4.2,3 0.6,1.8 0.1,3.8 -1.4,5 l -11.2,9.1 4.8,13.7 c 0.3,0.6 0.4,1.2 0.4,1.9 0.1,2.4 -1.9,4.4 -4.4,4.4 z m -29.6,-28.1 4.1,2.9 c 1.6,1.2 2.3,3.3 1.6,5.1 l -2.5,7.2 7.5,-3.4 c 1.2,-0.5 2.5,-0.5 3.7,0 l 7.5,3.4 -2.5,-7.2 c -0.6,-1.8 -0.1,-3.8 1.4,-5 l 3.8,-3.1 h -4.4 c -1.7,0 -3.3,-1 -4,-2.5 l -4.5,-9 -4.5,9 c -0.8,1.5 -2.3,2.5 -4,2.5 h -3.2 z m -55.8,28.1 c -0.6,0 -1.3,-0.1 -1.8,-0.4 l -15.2,-6.8 -15.2,6.8 c -1.6,0.7 -3.6,0.4 -4.9,-0.8 -1.3,-1.2 -1.8,-3.1 -1.2,-4.8 l 4.9,-13.9 -12.6,-9.1 c -1.6,-1.1 -2.2,-3.2 -1.6,-5 0.6,-1.8 2.3,-3.1 4.3,-3.1 h 14.3 l 7.3,-14.6 c 0.8,-1.5 2.3,-2.5 4,-2.5 v 0 c 1.7,0 3.3,1 4,2.5 l 7.3,14.6 h 14.3 c 1.9,0 3.6,1.2 4.2,3 0.6,1.8 0.1,3.8 -1.4,5 l -11.2,9.1 4.8,13.7 c 0.3,0.6 0.4,1.2 0.4,1.9 -0.2,2.4 -2.2,4.4 -4.7,4.4 z m -29.6,-28.1 4.1,2.9 c 1.6,1.2 2.3,3.3 1.6,5.1 l -2.5,7.2 7.5,-3.4 c 1.2,-0.5 2.5,-0.5 3.7,0 l 7.5,3.4 -2.5,-7.2 c -0.6,-1.8 -0.1,-3.8 1.4,-5 l 3.8,-3.1 h -4.4 c -1.7,0 -3.3,-1 -4,-2.5 l -4.5,-9 -4.5,9 c -0.8,1.5 -2.3,2.5 -4,2.5 h -3.2 z m -89.8,28.1 c -1.1,0 -2.2,-0.4 -3,-1.2 -1.3,-1.2 -1.8,-3.1 -1.2,-4.8 l 4.9,-13.9 -12.6,-9.1 c -1.6,-1.1 -2.2,-3.2 -1.6,-5 0.6,-1.8 2.3,-3.1 4.3,-3.1 h 14.3 l 7.3,-14.6 c 0.8,-1.5 2.3,-2.5 4,-2.5 1.7,0 3.3,1 4,2.5 l 7.3,14.6 h 14.3 c 1.9,0 3.6,1.2 4.2,3 0.6,1.8 0.1,3.8 -1.4,5 l -11.2,9.1 4.8,13.7 c 0.3,0.6 0.4,1.2 0.4,1.9 0,2.5 -2,4.5 -4.5,4.5 -0.6,0 -1.3,-0.1 -1.9,-0.4 l -15.2,-6.8 -15.2,6.8 c -0.8,0.2 -1.4,0.3 -2,0.3 z m 4.5,-28.1 4.1,2.9 c 1.6,1.2 2.3,3.3 1.6,5.1 l -2.5,7.2 7.5,-3.4 c 1.2,-0.5 2.5,-0.5 3.7,0 l 7.5,3.4 -2.5,-7.2 c -0.6,-1.8 -0.1,-3.8 1.4,-5 l 3.8,-3.1 h -4.4 c -1.7,0 -3.3,-1 -4,-2.5 l -4.5,-9 -4.5,9 c -0.8,1.5 -2.3,2.5 -4,2.5 h -3.2 z m 259.1,68 h -324.2 c -2.6,0 -4.3,-1.7 -4.3,-4.3 v -132.2 h -73.4 l 30.7,53.8 c 0.9,1.7 0.9,2.6 0,4.3 l -30.7,53.8 h 43.5 c 2.6,0 4.3,1.7 4.3,4.3 0,2.6 -1.7,4.3 -4.3,4.3 h -51.2 c -1.7,0 -2.6,-0.9 -3.4,-1.7 -0.9,-1.7 -0.9,-2.6 0,-4.3 l 33.3,-58 -33.3,-58 c -0.9,-1.7 -0.9,-2.6 0,-4.3 0.9,-1.7 2.6,-1.7 3.4,-1.7 h 85.3 c 2.6,0 4.3,1.7 4.3,4.3 v 132.3 h 315.7 v -133.4 c 0,-2.6 1.7,-4.3 4.3,-4.3 h 85.3 c 1.7,0 2.6,0.9 3.4,1.7 0.9,1.7 0.9,2.6 0,4.3 l -33.3,58 33.3,58 c 0.9,1.7 0.9,2.6 0,4.3 -0.9,1.7 -2.6,1.7 -3.4,1.7 h -51.2 c -2.6,0 -4.3,-1.7 -4.3,-4.3 0,-2.6 1.7,-4.3 4.3,-4.3 h 43.5 l -30.7,-53.8 c -0.9,-1.7 -0.9,-2.6 0,-4.3 l 30.7,-53.8 h -73.4 v 133.3 c 0.1,2.6 -1.6,4.3 -4.2,4.3 z m -34.1,-119.5 h -256 c -2.6,0 -4.3,-1.7 -4.3,-4.3 0,-2.6 1.7,-4.3 4.3,-4.3 h 256 c 2.6,0 4.3,1.7 4.3,4.3 0,2.6 -1.7,4.3 -4.3,4.3 z m -53.1,-33.8 c -1.6,-1.2 -2.5,-5 -0.5,-7.1 24.3,-25.1 49.5,-99.8 50.3,-100.7 0.9,-1.7 1.6,-2.6 3.3,-2.6 6.8,0 12.8,-6 12.8,-12.8 v -34.1 c 0,-6.8 -6,-12.8 -12.8,-12.8 -2.6,0 -4.3,-1.7 -4.3,-4.3 v -51.2 c 0,-3.4 -0.9,-89.6 -81.1,-89.6 -1.7,0 -2.6,-0.9 -3.4,-1.7 -0.9,-0.9 -0.9,-2.6 0,-4.3 2.6,-5.1 0.9,-8.5 0.9,-9.4 -4.3,-6.8 -18.8,-10.2 -39.3,-10.2 -139.1,0 -140.8,127.1 -140.8,132.3 0,2.6 -1.7,4.3 -4.3,4.3 -2.6,0 -4.3,-1.7 -4.3,-4.3 0,-1.7 1.7,-140.8 149.3,-140.8 14.5,0 39.3,1.7 46.9,14.5 1.7,2.6 2.6,6 1.7,11.1 82.8,4.3 83.6,97.3 83.6,98.1 v 47.8 c 9.4,1.7 17.1,10.2 17.1,20.5 v 34.1 c 0,11.1 -7.7,19.6 -17.9,21.3 -0.7,2 -1.4,4 -2.2,6 -1,2.9 -2.1,5.7 -3.2,8.6 -1.3,3.5 -2.7,7 -4.1,10.5 -1.6,4 -3.2,7.9 -4.9,11.9 -1.8,4.3 -3.7,8.5 -5.6,12.7 -2,4.3 -4,8.6 -6.1,12.9 -2.1,4.2 -4.3,8.4 -6.6,12.5 -2.2,3.9 -4.5,7.7 -6.9,11.5 -2.2,3.4 -4.6,6.7 -7.1,9.9 -1,1.3 -2.1,2.5 -3.2,3.7 -0.6,0.7 -1.3,1.3 -2,1.9 -1.4,1.3 -3.5,1.1 -5.3,-0.2 z m -151.1,-1.2 c -3.7,-1.2 -6.4,-4.5 -8.4,-7.1 -2.6,-3.2 -5,-6.6 -7.2,-10.1 -5,-7.7 -9.4,-15.9 -13.5,-24.1 -4.1,-8.4 -7.9,-16.9 -11.5,-25.5 -3,-7.3 -5.9,-14.7 -8.7,-22.1 -1.7,-4.5 -3.3,-9 -4.9,-13.6 -10.2,-1.7 -17.9,-10.2 -17.9,-21.3 v -34.1 c 0,-11.9 8.4,-20.3 20.3,-20.3 2.6,0 4.3,1.7 4.3,4.3 0,1.7 1.9,11.1 11.2,12.8 7.7,-17.1 15.4,-47.8 15.4,-64 0,-2.6 1.7,-4.3 4.3,-4.3 52.9,0 134.7,-8.5 149.2,-32.4 0.9,-1.7 2.6,-2.6 5.1,-1.7 1.7,0.9 3.4,2.6 3.4,4.3 0,31.6 32.4,64.9 33.3,64.9 1.7,1.7 1.7,4.3 0,6 -1.7,1.7 -4.3,1.7 -6,0 -1.7,-1.7 -29,-29.9 -34.1,-61.4 -30.8,25.3 -124.7,27.9 -146,27.9 -0.9,17.1 -8.5,46.1 -16.2,62.3 l 24.7,18.8 c 0,-11.9 9.4,-21.3 21.3,-21.3 h 34.1 c 11.9,0 21.3,9.4 21.3,21.3 v 8.5 c 0,16.2 -13.7,29.9 -29.9,29.9 h -17.1 c -15.4,0 -29,-11.9 -29.9,-27.3 l -31.6,-23.9 c -12.8,-0.9 -17.9,-9.4 -19.6,-16.2 -5.1,1.7 -9.4,6.8 -9.4,11.9 v 34.1 c 0,6.8 6,12.8 12.8,12.8 1.7,0 3.4,0.9 4.3,2.6 0,0.6 0.4,1.3 0.6,1.8 0.5,1.6 1.1,3.2 1.6,4.8 1.9,5.4 4,10.9 6.1,16.2 2.9,7.3 5.9,14.6 9.1,21.9 3.5,7.9 7.2,15.8 11.2,23.5 3.8,7.2 7.9,14.4 12.5,21.1 2,2.9 4.1,5.6 6.4,8.3 1,1.2 2.4,3 3.4,4.3 1.4,1.9 1.1,4.9 -0.5,6.4 -1.1,1.2 -2.4,0.3 -3.5,0 z m 4.7,-131.4 c 0,11.9 9.4,21.3 21.3,21.3 h 17.1 c 11.9,0 21.3,-9.4 21.3,-21.3 v -8.5 c 0,-6.8 -6,-12.8 -12.8,-12.8 h -34.1 c -6.8,0 -12.8,6 -12.8,12.8 z m 71.5,123.8 c -25.6,0 -35.8,-24.7 -38.4,-37.5 0,-0.9 0,-2.6 0.9,-3.4 0.9,-0.9 1.7,-1.7 3.4,-1.7 h 68.3 c 0.9,0 2.6,0.9 3.4,1.7 0.9,0.9 0.9,2.6 0.9,3.4 -2.7,12.7 -12.9,37.5 -38.5,37.5 z m -29,-34.2 c 2.6,8.5 10.2,25.6 29,25.6 18.8,0 26.5,-17.1 29,-25.6 z m 80.2,-59.7 h -17.1 c -16.2,0 -29.9,-13.7 -29.9,-29.9 v -8.5 c 0,-11.9 9.4,-21.3 21.3,-21.3 h 34.1 c 11.9,0 21.3,9.4 21.3,21.3 l 27.3,-20.5 c 1.7,-1.7 4.3,-0.9 6,0.9 0.9,0.9 0.9,1.7 0.9,2.6 0,1.7 -0.9,2.6 -1.7,3.4 l -32.3,24.7 c -0.9,15.4 -14.5,27.3 -29.9,27.3 z m -25.6,-51.2 c -6.8,0 -12.8,6 -12.8,12.8 v 8.5 c 0,11.9 9.4,21.3 21.3,21.3 h 17.1 c 11.9,0 21.3,-9.4 21.3,-21.3 v 0 0 -8.5 c 0,-6.8 -6,-12.8 -12.8,-12.8 z"
         id="path7" /></g><path
       style="fill:#333333;fill-opacity:1;stroke:#ffbb00;stroke-width:4;stroke-dasharray:none;stroke-opacity:1"
       d="M 526.84837,133.54676 V 632.73685"
       id="path24"
       sodipodi:nodetypes="cc" /><text
       xml:space="preserve"
       style="font-style:normal;font-variant:normal;font-weight:normal;font-stretch:normal;font-size:24px;font-family:'Moonlight Ai';-inkscape-font-specification:'Moonlight Ai';text-align:end;text-anchor:end;fill:#554400;fill-opacity:1;stroke:none;stroke-width:2;stroke-dasharray:none;stroke-opacity:1"
       x="809.23749"
       y="126.69574"
       id="text25"><tspan
         sodipodi:role="line"
         id="tspan25"
         x="809.23749"
         y="126.69574"
         style="font-style:normal;font-variant:normal;font-weight:bold;font-stretch:normal;font-size:24px;font-family:'Nimbus Sans';-inkscape-font-specification:'Nimbus Sans Bold';fill:#554400">Options:</tspan></text><text
       xml:space="preserve"
       id="text26"
       style="font-style:normal;font-variant:normal;font-weight:bold;font-stretch:normal;font-size:41.7758px;font-family:'Nimbus Sans';-inkscape-font-specification:'Nimbus Sans Bold';text-align:start;white-space:pre;shape-inside:url(#rect26);display:inline;fill:#554400;fill-opacity:1;stroke:none;stroke-width:4;stroke-dasharray:none;stroke-opacity:1"
       transform="matrix(0.57449474,0,0,0.57449474,-80.882861,33.507573)"><tspan
         x="1101.8867"
         y="220.16677"
         id="tspan97"><tspan
           style="fill:#0059ab"
           id="tspan96">Painters can buy their own water bottles </tspan></tspan><tspan
         x="1101.8867"
         y="272.38652"
         id="tspan99"><tspan
           style="fill:#0059ab"
           id="tspan98">and fill them with water in the morning at </tspan></tspan><tspan
         x="1101.8867"
         y="324.60628"
         id="tspan101"><tspan
           style="fill:#0059ab"
           id="tspan100">one of the water dispensers. They can </tspan></tspan><tspan
         x="1101.8867"
         y="379.79212"
         id="tspan105"><tspan
           style="fill:#0059ab"
           id="tspan102">cover their bottles in a </tspan><tspan
           style="font-weight:normal;font-family:'Moonlight Ai';-inkscape-font-specification:'Moonlight Ai';fill:#666666"
           id="tspan103">plastic bag</tspan><tspan
           style="fill:#0059ab"
           id="tspan104"> to avoid </tspan></tspan><tspan
         x="1101.8867"
         y="432.01186"
         id="tspan107"><tspan
           style="fill:#0059ab"
           id="tspan106">contamination. They also have the option </tspan></tspan><tspan
         x="1101.8867"
         y="487.1977"
         id="tspan111"><tspan
           style="fill:#0059ab"
           id="tspan108">of storing the bottles in their </tspan><tspan
           style="font-weight:normal;font-family:'Moonlight Ai';-inkscape-font-specification:'Moonlight Ai';fill:#4d4d4d"
           id="tspan109">refrigerator</tspan><tspan
           style="fill:#0059ab"
           id="tspan110">.
</tspan></tspan><tspan
         x="1101.8867"
         y="539.41744"
         id="tspan113"><tspan
           style="fill:#0059ab"
           id="tspan112">
</tspan></tspan><tspan
         x="1101.8867"
         y="591.63716"
         id="tspan115"><tspan
           style="fill:#0059ab"
           id="tspan114">If the painters find this suggestion </tspan></tspan><tspan
         x="1101.8867"
         y="643.85689"
         id="tspan117"><tspan
           style="fill:#0059ab"
           id="tspan116">unacceptable: Each painter can </tspan></tspan><tspan
         x="1101.8867"
         y="696.07662"
         id="tspan119"><tspan
           style="fill:#0059ab"
           id="tspan118">contribute $1. Each painter takes a turn </tspan></tspan><tspan
         x="1101.8867"
         y="748.29634"
         id="tspan121"><tspan
           style="fill:#0059ab"
           id="tspan120">each week to buy and transport the </tspan></tspan><tspan
         x="1101.8867"
         y="800.51607"
         id="tspan123"><tspan
           style="fill:#0059ab"
           id="tspan122">bottled water to their work station from </tspan></tspan><tspan
         x="1101.8867"
         y="852.7358"
         id="tspan125"><tspan
           style="fill:#0059ab"
           id="tspan124">the supermarket.
</tspan></tspan><tspan
         x="1101.8867"
         y="904.95552"
         id="tspan127"><tspan
           style="fill:#0059ab"
           id="tspan126">
</tspan></tspan><tspan
         x="1101.8867"
         y="957.17525"
         id="tspan129"><tspan
           style="fill:#0059ab"
           id="tspan128">
</tspan></tspan><tspan
         x="1101.8867"
         y="1009.395"
         id="tspan131"><tspan
           style="fill:#0059ab"
           id="tspan130">
</tspan></tspan><tspan
         x="1101.8867"
         y="1019.3425"
         id="tspan133"><tspan
           style="fill:#0059ab"
           id="tspan132">
</tspan></tspan></text><text
       xml:space="preserve"
       style="font-weight:600;font-size:52.1518px;font-family:'Noto Sans';-inkscape-font-specification:'Noto Sans Semi-Bold';text-align:center;text-anchor:middle;fill:#d4aa00;fill-opacity:1;stroke:#025897;stroke-width:1.22231;stroke-dasharray:none;stroke-opacity:1"
       x="672.58313"
       y="62.394993"
       id="text29"><tspan
         sodipodi:role="line"
         x="672.58313"
         y="62.394993"
         style="font-style:normal;font-variant:normal;font-weight:normal;font-stretch:normal;font-size:52.1518px;font-family:'Moonlight Ai';-inkscape-font-specification:'Moonlight Ai';fill:#d4aa00;stroke-width:1.22231"
         id="tspan29"> and Happier Employees</tspan></text><text
       xml:space="preserve"
       id="text34"
       style="fill:#333333;-inkscape-font-specification:'Moonlight Ai';font-family:'Moonlight Ai';font-size:24px;stroke-width:8;text-align:start;font-weight:normal;fill-opacity:1;stroke:none;stroke-opacity:1;stroke-dasharray:none;font-style:normal;font-stretch:normal;font-variant:normal;opacity:0.2;white-space:pre;shape-inside:url(#rect34)" /></g></svg>
