<?xml version="1.0" encoding="UTF-8" standalone="no"?>
<!-- Created with Inkscape (http://www.inkscape.org/) -->

<svg
   version="1.1"
   id="svg1"
   width="480"
   height="512"
   viewBox="0 0 480 512"
   sodipodi:docname="final_rocket_with_flame.svg"
   inkscape:version="1.3.2 (091e20ef0f, 2023-11-25)"
   xmlns:inkscape="http://www.inkscape.org/namespaces/inkscape"
   xmlns:sodipodi="http://sodipodi.sourceforge.net/DTD/sodipodi-0.dtd"
   xmlns="http://www.w3.org/2000/svg"
   xmlns:svg="http://www.w3.org/2000/svg">
  <defs
     id="defs1">
    <clipPath
       clipPathUnits="userSpaceOnUse"
       id="clipPath1">
      <rect
         style="fill:#ff0000;stroke-width:1.00157"
         id="rect2"
         width="261.89688"
         height="184.45515"
         x="137.35043"
         y="109.09431" />
    </clipPath>
  </defs>
  <sodipodi:namedview
     id="namedview1"
     pagecolor="#ffffff"
     bordercolor="#666666"
     borderopacity="1.0"
     inkscape:showpageshadow="2"
     inkscape:pageopacity="0.0"
     inkscape:pagecheckerboard="0"
     inkscape:deskcolor="#d1d1d1"
     inkscape:zoom="4.3632812"
     inkscape:cx="74.829006"
     inkscape:cy="128.68756"
     inkscape:window-width="2500"
     inkscape:window-height="1384"
     inkscape:window-x="50"
     inkscape:window-y="33"
     inkscape:window-maximized="1"
     inkscape:current-layer="layer1" />
  <g
     inkscape:groupmode="layer"
     inkscape:label="Image"
     id="g1" />
  <g
     inkscape:groupmode="layer"
     id="layer1"
     inkscape:label="Image 1">
    <path
       style="fill:#1a1a1a;stroke:none;stroke-width:1px;stroke-linecap:butt;stroke-linejoin:miter;stroke-opacity:1"
       d="m 202.86873,149.38015 -4.24085,12.42899 17.92133,-14.47402 -1.97299,-4.73518 z"
       id="path2" />
    <path
       style="fill:#1a1a1a;stroke:none;stroke-width:1px;stroke-linecap:butt;stroke-linejoin:miter;stroke-opacity:1"
       d="m 189.02475,135.49185 -12.49945,4.02844 14.77732,-17.67208 4.70087,2.05339 z"
       id="path3" />
    <path
       style="fill:#1a1a1a;stroke:none;stroke-width:1px;stroke-linecap:butt;stroke-linejoin:miter;stroke-opacity:1"
       d="m 188.03581,141.10598 9.19305,9.06237 -102.720768,93.86879 z"
       id="path4" />
    <path
       style="fill:#1a1a1a;stroke:none;stroke-width:1px;stroke-linecap:butt;stroke-linejoin:miter;stroke-opacity:1"
       d="m 123.91099,192.91349 51.49258,-51.149 c 0,0 -41.9372,-23.48962 -70.83233,13.95134 -25.896743,33.5558 1.21619,68.21974 1.21619,68.21974 l 8.99454,-9.81118 c 0,0 -16.10261,-25.76876 -0.681,-47.56132 16.48963,-23.3018 41.71799,-17.65522 41.71799,-17.65522 z"
       id="path5"
       sodipodi:nodetypes="ccsccscc" />
    <path
       style="fill:#1a1a1a;stroke:none;stroke-width:1px;stroke-linecap:butt;stroke-linejoin:miter;stroke-opacity:1"
       d="m 145.65117,214.17867 51.149,-51.49258 c 0,0 23.48962,41.9372 -13.95134,70.83233 -33.5558,25.89674 -68.21974,-1.21619 -68.21974,-1.21619 l 9.81118,-8.99454 c 0,0 25.76876,16.10261 47.56132,0.681 23.3018,-16.48963 17.65522,-41.71799 17.65522,-41.71799 z"
       id="path6"
       sodipodi:nodetypes="ccsccscc" />
    <path
       style="fill:#1a1a1a;fill-opacity:1;stroke:none;stroke-width:1px;stroke-linecap:butt;stroke-linejoin:miter;stroke-opacity:1"
       d="m 190.84091,135.75166 12.07557,11.89892 c 0,0 11.86645,-7.08172 15.06092,-9.55263 12.76581,-9.8743 20.33575,-35.16598 20.33575,-35.16598 2.12779,-0.002 4.18831,-1.46672 2.93849,-4.319241 l 9.54684,-10.933993 -10.81394,9.635065 c -2.67132,-0.823955 -4.07733,0.184154 -4.32554,2.894489 0,0 -24.11952,6.57667 -33.45953,18.06597 -9.34002,11.48929 -11.35858,17.4774 -11.35858,17.4774 z"
       id="path7"
       sodipodi:nodetypes="ccscccccscc" />
    <circle
       style="fill:#f9f9f9;stroke:none;stroke-width:1.00157;stroke-opacity:1"
       id="path8"
       cx="206.33347"
       cy="131.88907"
       r="2.3483417" />
  </g>
</svg>
